<?xml version="1.0" encoding="UTF-8" standalone="no"?><!DOCTYPE svg PUBLIC "-//W3C//DTD SVG 1.1//EN" "http://www.w3.org/Graphics/SVG/1.1/DTD/svg11.dtd"><svg width="100%" height="100%" viewBox="0 0 5334 5334" version="1.1" xmlns="http://www.w3.org/2000/svg" xmlns:xlink="http://www.w3.org/1999/xlink" xml:space="preserve" xmlns:serif="http://www.serif.com/" style="fill-rule:evenodd;clip-rule:evenodd;stroke-linejoin:round;stroke-miterlimit:2;"><circle cx="2666.67" cy="2666.67" r="2666.67" style="fill:#ec93a1;"/><path d="M4228.02,1972.83c-2.347,1.245 -3.578,1.577 -6.634,2.474c-4.368,1.524 -6.885,1.194 -10.588,-0.077c-1.942,-0.906 -2.691,-1.321 -4.512,-2.457c-1.762,-1.239 -2.451,-1.76 -4.136,-3.076c-6.855,-3.214 -10.959,-1.126 -13.989,5.492c-0.325,3.92 -0.661,6.526 -1.082,10.444c-0.322,5.877 1.421,9.918 3.959,15.064c0.985,1.933 1.356,2.709 2.225,4.656c1.11,2.709 1.706,4.253 2.806,6.898c0.854,1.827 1.188,2.559 2,4.394c1.084,2.575 1.662,4.058 2.697,6.647c0.78,1.835 1.077,2.576 1.785,4.439c0.93,2.623 1.43,4.13 2.341,6.764c0.7,1.877 0.966,2.635 1.598,4.542c1.068,3.457 1.648,5.803 3.028,9.212c0.817,1.954 1.135,2.752 1.905,4.78c1.347,3.788 2.04,6.407 3.113,10.43c0.45,2.405 0.569,3.392 0.767,5.888c3.912,18.904 2.061,37.612 12.647,55.217c1.302,5.18 1.611,8.761 1.719,14.257c-2.584,31.458 0.701,61.07 2.516,90.358c2.124,34.295 0.62,68.901 6.558,104.926c0.527,8.509 -1.393,14.863 -1.62,23.323c1.756,30.36 1.797,58.782 0.072,89.104c-2.708,77.811 -4.269,153.673 -14.42,229.251c-10.953,81.548 -26.759,162.235 -39.173,243.501c-1.777,11.635 -4.835,23.018 -9.08,35.89c-5.051,42.11 -10.53,82.341 -23.32,121.093c-3.307,10.018 -2.617,20.607 -6.047,32.169c-0.107,5.993 0.669,10.316 -0.107,16.223c-0.58,3.569 -1.073,5.556 -2.072,8.948c-1.011,3.304 -1.692,5.148 -3.009,8.318c-2.48,4.76 -4.581,8.091 -5.7,13.532c-1.264,2.295 -1.896,3.157 -3.792,5.064c-2.26,1.546 -3.256,2.045 -5.879,3.008c-2.755,0.608 -3.883,0.752 -6.723,0.897c-33.857,-4.477 -66.032,-9.835 -98.94,4.138c-9.115,3.609 -18.73,5.553 -16.149,16.881c2.464,10.817 12.503,10.944 20.22,9.081c24.082,-5.815 48.004,-0.541 73.358,-0.694c2.301,0.014 3.216,0.015 5.492,-0.035c3.183,-0.181 5.007,-0.288 8.229,-0.553c6.249,-0.639 11.1,-0.719 17.407,0.266c13.818,4.274 25.8,9.895 40.872,8.702c47.704,15.019 92.917,32.012 132.318,61.323c61.238,45.556 74.951,107.165 38.376,176.918c-1.394,2.094 -1.958,2.907 -3.213,4.996c-1.099,2.127 -1.507,2.98 -3.365,6.153c-1.973,3.021 -2.497,3.723 -3.827,5.426c-2.392,2.895 -4.147,4.639 -6.454,7.469c-1.232,1.52 -1.735,2.112 -3.797,4.363c-2.088,2.18 -2.616,2.7 -4.723,4.718c-2.099,1.982 -2.619,2.468 -4.671,4.396c-2.035,1.924 -2.538,2.405 -4.53,4.343c-1.983,1.951 -2.476,2.446 -4.442,4.466c-1.965,2.055 -2.458,2.585 -4.43,4.782c-1.98,2.259 -2.48,2.85 -4.511,5.321c-2.066,2.544 -2.6,3.206 -4.856,5.924c-2.358,2.75 -2.993,3.444 -4.66,5.144c-62.03,52.243 -133.376,83.944 -207.96,108.843c-22.148,7.395 -46.584,5.877 -69.372,12.124c-5.258,1.442 -12.544,0.913 -12.31,8.354c0.954,30.259 -17.775,53.327 -28.731,80.755c-1.07,2.147 -1.501,2.991 -2.627,5.033c-1.167,1.959 -1.641,2.72 -2.827,4.582c-1.639,2.509 -2.572,3.911 -4.081,6.374c-0.951,1.761 -1.332,2.456 -2.295,4.169c-0.977,1.674 -1.372,2.331 -2.971,4.875c-1.606,2.492 -2.007,3.096 -3.003,4.59c-0.985,1.471 -1.375,2.054 -2.338,3.501c-1.322,1.998 -2.062,3.138 -3.252,5.187c-0.459,0.904 -1.385,2.711 -1.856,3.612c-1.103,2.102 -1.76,3.291 -2.897,5.392c-0.456,0.926 -1.43,2.758 -1.942,3.663c-0.511,0.905 -1.567,2.698 -2.636,4.481c-1.069,1.784 -2.128,3.573 -2.65,4.472c-0.522,0.899 -1.551,2.707 -2.058,3.617c-0.84,1.519 -1.174,2.129 -2.007,3.656c-0.835,1.528 -1.17,2.138 -2.016,3.659c-1.193,2.119 -1.896,3.314 -3.1,5.425c-0.817,1.536 -1.153,2.145 -2.017,3.652c-0.526,0.898 -1.608,2.669 -2.701,4.419c-1.094,1.75 -2.178,3.499 -2.716,4.381c-0.537,0.881 -1.603,2.662 -2.132,3.559c-1.238,2.112 -1.947,3.327 -3.14,5.527c-0.821,1.652 -1.16,2.318 -2.03,3.995c-0.9,1.7 -1.268,2.389 -2.811,5.21c-1.606,2.856 -2.038,3.58 -3.207,5.382c-1.326,1.75 -1.915,2.423 -3.44,4.091c-18.591,32.262 -39.234,61.552 -61.05,91.786c-1.915,2.722 -3.063,4.227 -5.074,6.85c-2.53,3.409 -4.465,5.464 -7.538,8.39c-19.443,29.898 -42.78,54.946 -65.342,82.452c-21.784,25.598 -43.4,49.407 -64.677,73.51c-9.518,10.784 -19.533,21.243 -31.935,31.288c-115.416,130.177 -250.276,231.412 -410.041,301.256c-30.964,14.805 -61.087,27.823 -92.721,40.995c-3.165,0.967 -4.988,1.371 -8.103,2.104c-2.843,1.143 -4.448,1.809 -7.286,2.777c-2.744,0.902 -4.314,1.347 -7.022,2.12c-2.614,0.83 -4.108,1.276 -6.687,2.117c-2.532,0.965 -3.984,1.516 -6.509,2.588c-2.54,1.223 -4.014,1.906 -6.628,3.15c-4.261,2.026 -7.546,3.074 -11.975,4.774c-2.843,1.01 -4.484,1.508 -7.334,2.379c-1.995,0.674 -2.793,0.934 -4.782,1.57c-3.548,1.128 -5.936,1.786 -9.356,3.304c-6.677,2.704 -12.292,4.649 -19.089,7.078c-2.861,0.749 -4.507,1.083 -7.322,1.814c-3.49,1.112 -5.886,1.519 -9.348,2.556c-1.881,0.608 -2.635,0.84 -4.519,1.39c-3.364,0.927 -5.633,1.404 -8.903,2.592c-2.539,0.947 -4.007,1.437 -6.585,2.29c-2.576,0.885 -4.066,1.327 -6.683,2.083c-2.612,0.765 -4.121,1.13 -6.763,1.74c-3.355,0.833 -5.622,1.234 -8.915,2.35c-1.851,0.669 -2.601,0.93 -4.492,1.564c-3.463,1.13 -5.814,1.807 -9.249,3.348c-2.019,0.927 -2.848,1.291 -4.966,2.179c-4.004,1.577 -6.79,2.428 -11.037,3.882c-63.864,17.027 -127,30.077 -191.887,42.809c-5.843,0.869 -10.13,0.957 -15.915,2.054c-2.654,0.355 -3.725,0.438 -6.406,0.487c-14.795,-2.548 -26.875,0.86 -40.075,7.299c-3.832,0.748 -6.067,0.809 -10.001,0.768c-31.047,6.275 -61.114,7.021 -92.332,12.107c-28.629,2.146 -55.313,6.829 -82.472,6.389c-39.521,-0.639 -78.754,5.578 -118.418,4.322c-90.022,-2.852 -179.706,-8.026 -269.167,-19.775c-130.961,-17.197 -258.949,-46.741 -384.91,-85.675c-194.491,-60.115 -370.416,-155.266 -528.879,-282.766c-66.749,-53.707 -122.48,-117.382 -176.215,-184.336c-93.858,-116.944 -156.467,-249.656 -211.884,-386.763c-19.985,-49.447 -33.072,-101.243 -45.766,-153.225c-12.516,-51.25 -23.137,-102.527 -29.933,-154.8c-2.419,-18.603 -4.379,-37.64 -4.239,-55.807c0.436,-56.332 -14.332,-111.729 -9.77,-167.945c4.983,-61.39 10.959,-122.682 20.967,-183.606c17.6,-107.142 47.359,-210.816 85.009,-312.383c9.87,-26.626 20.582,-52.998 35.035,-79.387c16.668,-43.44 39.761,-81.959 59.944,-121.909c2.416,-4.783 7.012,-8.875 3.825,-16.351c-23.735,-27.339 -32.679,-59.845 -42.962,-93.355c-1.234,-2.127 -1.696,-2.993 -2.796,-5.178c-1.432,-3.08 -2.195,-4.857 -3.543,-7.952c-7.293,-17.095 -16.748,-31.661 -22.105,-49.555c-1.171,-2.023 -1.6,-2.851 -2.595,-4.949c-1.248,-2.984 -1.888,-4.712 -3.01,-7.737c-1.203,-3.032 -1.838,-4.798 -2.964,-7.94c-1.157,-3.268 -1.657,-5.208 -2.256,-8.742c-0.218,-2.633 -0.216,-3.704 -0.204,-6.4c-10.534,-45.147 -10.349,-88.732 -0.609,-133.957c0.198,-2.621 0.24,-3.656 0.403,-6.217c0.464,-3.46 0.94,-5.36 2.07,-8.495c0.844,-2.079 1.213,-2.878 2.187,-4.808c1.432,-2.545 2.287,-3.943 3.717,-6.35c0.907,-1.705 1.271,-2.381 2.183,-4.057c1.29,-2.328 2.046,-3.646 3.347,-5.99c0.907,-1.721 1.286,-2.408 2.279,-4.124c1.05,-1.717 1.486,-2.405 3.339,-5.188c1.926,-2.809 2.435,-3.524 4.614,-6.418c2.293,-2.909 2.915,-3.637 4.547,-5.433c27.763,-25.104 60.324,-36.627 96.092,-44.814c6.565,-0.957 11.534,-2.008 17.925,-3.867c2.55,-0.492 3.582,-0.616 6.168,-0.743c37.556,2.002 73.595,0.063 109.6,0.988c20.663,0.531 41.498,1.806 61.379,7.54c21.288,6.139 23.661,16.008 8.986,32.905c-11.355,13.073 -22.7,26.127 -32.597,40.338c-3.273,4.699 -10.143,9.838 -2.746,15.874c6.36,5.19 13.771,6.154 20.885,0.257c8.586,-7.117 15.596,-15.66 22.823,-24.072c14.868,-17.305 28.184,-35.995 46.538,-52.173c20.647,-24.88 42.666,-46.581 62.596,-70.13c5.333,-6.302 9.911,-13.237 18.28,-18.567c27.334,-30.811 58.073,-55.942 88.149,-83.902c42.577,-42.894 88.066,-80.309 133.201,-118.074c91.519,-76.576 184.831,-150.831 283.795,-217.752c83.415,-56.406 170.191,-107.17 258.707,-154.997c24.39,-13.178 47.998,-27.914 74.923,-39.508c31.58,-18.689 64.873,-30.807 96.329,-49.808c39.749,-20.473 80.084,-36.289 119.138,-58.4c99.033,-41.733 197.716,-79.745 299.73,-108.297c51.252,-14.345 102.994,-26.858 155.366,-36.802c46.837,-8.894 94.152,-14.36 142.864,-22.103c7.34,-0.511 12.991,-0.78 20.264,-2.505c11.562,-0.951 21.401,-0.744 33.102,-1.388c29.842,5.881 58.054,2.364 88.037,2.354c19.364,-3.243 36.934,-1.898 56.303,-1.134c6.384,1.3 10.464,4.022 17.001,4.148c8.561,-1.04 15.274,-0.212 23.56,1.734c53.614,10.166 104.278,24.4 153.943,46.821c4.539,1.954 7.671,3.646 12.645,3.433c2.222,-0.31 3.121,-0.512 5.348,-1.23c15.683,-56.501 63.597,-81.418 105.68,-110.589c58.378,-40.467 124.166,-64.674 194.118,-75.749c60.593,-9.594 121.182,-12.226 180.577,10.026c42.475,15.913 73.361,43.961 94.866,83.012c24.581,44.636 32.541,93.843 38.804,143.562c3.207,25.453 3.8,51.061 6.293,76.554c5.785,59.139 39.496,97.003 90.22,123.21c46.766,24.162 93.62,47.846 136.53,79.207c50.142,36.647 83.087,84.524 105.337,143.01c4.479,17.626 10.799,33.149 11.734,51.583c-0.13,4.954 0.258,8.173 2.051,12.839c2.562,10.458 1.88,19.461 1.405,30.101c-1.407,7.229 -0.545,12.614 1.604,19.559c4.502,36.181 -2.842,68.993 -14.453,102.802c-0.008,2.715 -0.056,3.792 -0.29,6.457c-0.7,4.652 -1.628,7.613 -2.811,12.039c-1.808,6.01 -3.782,10.388 -5.726,16.277c-1.395,3.961 -2.581,6.489 -3.909,10.458c-3.494,9.077 -6.239,16.973 -11.356,25.237c-0.978,1.945 -1.35,2.719 -2.099,4.708c-1.018,2.735 -1.728,4.22 -3.055,6.712c-0.893,1.729 -1.258,2.407 -2.184,4.075c-1.312,2.279 -2.08,3.558 -3.373,5.807c-0.864,1.627 -1.217,2.273 -2.117,3.881c-0.919,1.604 -1.29,2.246 -2.782,4.846c-1.49,2.63 -1.86,3.302 -2.789,5.013c-0.935,1.75 -1.313,2.462 -2.269,4.261c-1.391,2.589 -2.228,4.076 -3.732,6.753c-13.002,19.544 -26.395,37.128 -42.296,52.505c-14.45,13.973 -27.21,29.157 -38.968,47.079Z" style="fill:#fff;fill-rule:nonzero;"/><path d="M902.063,2539.89c-30.791,76.347 -59.469,152.295 -81.093,230.73c-21.426,77.721 -37.736,156.418 -46.722,236.686c-5.001,44.673 -13.24,89.533 -10.103,134.174c5.944,84.609 6.836,169.534 21.696,253.68c22.399,126.838 59.208,248.636 114.232,364.954c38.388,81.151 78.804,161.845 132.026,233.938c77.045,104.363 166.918,196.807 273.965,272.256c124.847,87.994 257.571,159.991 401.888,209.965c76.06,26.337 153.467,48.158 231.987,66.404c59.783,13.891 120.206,23.96 180.453,35.027c35.217,6.47 71.064,10.317 106.805,12.956c79.431,5.867 158.978,11.157 238.694,8.452c47.67,-1.617 95.273,-5.203 144.788,-7.567c14.764,9.875 19.694,21.829 11.798,38.467c-102.124,12.117 -203.015,13.732 -304.383,8.913c-76.944,-3.659 -153.278,-11.565 -229.133,-23.46c-79.332,-12.44 -157.865,-29.343 -235.626,-49.902c-175.414,-46.378 -342.167,-112.977 -494.554,-212.361c-99.509,-64.899 -191.34,-138.875 -273.586,-225.744c-78.929,-83.365 -134.05,-181.127 -188.084,-280.256c-48.26,-88.536 -87.632,-181.151 -115.028,-278.138c-24.091,-85.292 -41.571,-172.056 -49.714,-260.803c-5.512,-60.078 -11.416,-120.024 -10.738,-180.315c0.858,-76.315 11.762,-151.693 25.149,-226.691c21.639,-121.232 59.319,-237.658 106.106,-351.308c2.096,-5.091 5.183,-9.774 8.924,-15.569c15.018,-8.188 27.826,-6.988 40.253,5.512Z" style="fill:#db5461;fill-rule:nonzero;"/><path d="M4348.78,1543.01c-31.711,-89.522 -98.051,-143.48 -177.922,-185.653c-38.868,-20.523 -80.502,-36.649 -113.5,-67.627c-31.001,-29.102 -41.665,-66.647 -43.859,-106.368c-2.634,-47.695 -6.348,-95.288 -18.454,-141.279c-22.547,-85.656 -64.509,-142.368 -165.81,-154.584c-137.219,-16.547 -256.509,27.321 -363.201,111.258c-23.385,18.398 -48.037,35.885 -50.699,69.747c-0.286,3.638 -6.278,6.827 -11.226,10.278c-16.576,-13.424 -25.107,-29.616 -21.737,-51.794c24.406,-41 62.02,-65.51 98.095,-90.809c63.735,-44.697 134.347,-74.598 211.377,-87.513c54.905,-9.206 110.272,-11.686 165.234,-0.572c93.988,19.006 149.39,78.983 175.719,168.737c13.721,46.772 20.172,94.757 21.057,143.349c0.397,21.819 5.337,42.606 10.346,63.386c5.514,22.87 21.247,38.875 41.101,50.113c42.183,23.876 85.605,45.637 127.16,70.535c70.936,42.503 125.555,99.667 152.365,179.917c1.523,4.558 2.208,9.396 3.313,15.77c-12.101,10.639 -24.748,8.917 -39.359,3.109Z" style="fill:#db5360;fill-rule:nonzero;"/><path d="M2183.96,1293.72c-64.849,37.324 -129.52,71.926 -192.759,108.972c-125.401,73.462 -242.603,158.692 -355.369,250.29c-68.129,55.34 -134.86,112.224 -201.214,171.624c-16.254,-4.327 -16.732,-18.928 -22.346,-31.704c19.399,-27.763 46.158,-46.666 70.539,-67.831c75.288,-65.357 152.718,-128.114 232.287,-188.275c92.401,-69.863 188.67,-133.731 289.603,-190.475c54.883,-30.855 109.025,-63.199 168.338,-88.86c17.244,7.812 15.047,21.066 10.921,36.259Z" style="fill:#db5461;fill-rule:nonzero;"/><path d="M3047.41,1019.21c-11.406,0.752 -21.211,1.154 -32.854,1.651c-6.116,3.495 -11.212,1.414 -17.283,2.585c-94.284,12.033 -186.347,27.892 -276.746,52.696c-109.667,30.091 -216.511,68.043 -322.134,114.236c-13.177,-9.611 -6.026,-19.496 -1.363,-29.129c3.952,-8.164 11.246,-13.711 18.559,-21.395c91.04,-43.726 184.746,-75.229 280.229,-101.866c101.472,-28.308 204.62,-47.485 311.222,-57.441c4.811,-1.104 7.978,-1.399 12.408,-0.879c5.698,-0.223 10.203,-0.619 16.405,-0.934c7.323,5.965 15.208,5.207 22.154,7.383c12.633,3.958 26.835,7.064 26.934,26.091c-11.833,7.611 -24.617,2.145 -37.531,7.002Z" style="fill:#a54549;fill-rule:nonzero;"/><path d="M3899.03,3817.54c1.082,-1.753 1.189,-2.473 1.886,-4.112c0.843,-1.693 1.097,-2.468 2.393,-3.884c1.237,-1.47 1.431,-2.3 2.206,-4.27c0.7,-1.895 0.819,-2.65 2.017,-3.791c1.081,-0.386 1.007,-1.228 1.429,-1.259c0.818,-0.86 1.216,-1.689 2.586,-3.495c1.101,-1.71 1.228,-2.443 1.952,-4.121c0.827,-1.725 1.057,-2.507 2.314,-3.95c1.195,-1.482 1.363,-2.304 2.117,-4.237c0.723,-1.872 0.86,-2.631 2.072,-3.822c1.348,-1.367 1.622,-2.302 2.605,-4.517c0.664,-2.01 0.62,-2.74 1.628,-3.783c1.053,-0.313 0.98,-1.177 1.412,-1.209c0.803,-0.847 1.174,-1.662 2.59,-3.322c1.186,-1.621 1.326,-2.399 2.016,-4.227c0.763,-1.822 0.975,-2.594 2.238,-3.947c1.246,-1.431 1.441,-2.278 2.193,-4.307c0.693,-1.961 0.829,-2.741 1.982,-4.132c1.271,-1.485 1.524,-2.358 2.516,-4.378c0.729,-1.898 0.72,-2.649 1.729,-3.883c1.017,-0.484 0.904,-0.96 1.144,-1.007c0.763,-0.845 1.286,-1.645 2.792,-3.485c1.099,-1.755 1.215,-2.469 1.835,-4.145c0.902,-2.75 1.258,-4.546 2.679,-7.17c1.102,-0.82 0.96,-1.75 1.425,-1.82c0.803,-0.915 1.14,-1.761 2.422,-3.594c8.414,-17.851 15.395,-34.954 23.514,-51.499c6.021,-12.27 12.794,-22.73 4.203,-37.724c-5.519,-9.633 4.371,-11.256 12.853,-11.875c107.889,-7.882 199.894,-53.695 284.853,-119.864c1.766,-1.267 2.186,-2.023 3.781,-3.329c1.175,-0.552 1.213,-1.348 1.611,-1.322c0.711,-0.733 1.025,-1.493 2.528,-2.581c1.19,-0.329 1.363,-1.417 1.908,-1.501c0.74,-0.854 0.936,-1.625 2.289,-2.684c1.156,-0.288 1.346,-1.392 1.898,-1.482c0.738,-0.859 0.924,-1.627 2.264,-2.668c1.153,-0.273 1.358,-1.392 1.918,-1.493c0.739,-0.869 0.918,-1.636 2.249,-2.668c1.152,-0.266 1.36,-1.392 1.923,-1.498c0.751,-0.884 0.938,-1.661 2.271,-2.787c1.146,-0.35 1.197,-1.341 1.689,-1.403c0.769,-0.842 1.045,-1.622 2.478,-2.852c1.157,-0.45 1.096,-1.328 1.536,-1.354c0.796,-0.819 1.152,-1.611 2.624,-3.077c1.116,-0.674 1.103,-1.164 1.348,-1.159c0.716,-0.761 1.188,-1.526 2.774,-3.05c2.555,-2.979 3.997,-5.198 6.194,-8.528c0.893,-1.863 1.033,-2.615 2.26,-3.736c1.087,-0.368 1.024,-1.28 1.481,-1.315c0.829,-0.847 1.202,-1.66 2.572,-3.37c0.996,-0.898 0.92,-1.008 0.98,-0.983c13.881,-4.501 17.169,4.642 17.699,14.872c0.641,12.388 -0.833,24.76 -8.463,37.483c-32.836,41.291 -74.382,68.817 -117.965,93.126c-57.678,32.171 -117.963,58.509 -183.472,70.332c-11.748,2.121 -13.542,10.322 -17.129,18.179c-27.972,61.274 -60.09,120.255 -98.184,177.454c-19.974,3.698 -26.534,-1.938 -30.336,-26.317c0.733,-2.383 0.922,-3.16 1.677,-4.997c0.696,-1.825 0.827,-2.592 1.999,-3.884c1.042,-0.526 0.972,-1.08 1.251,-1.105c0.776,-0.83 1.274,-1.636 2.746,-3.474Z" style="fill:#793935;fill-rule:nonzero;"/><path d="M3244.79,4426.14c55.096,-31.489 111.199,-57.845 163.842,-90.913c91.648,-57.568 168.205,-132.234 244.356,-209.601c14.554,2.538 23.314,11.471 31.074,23.528c-28.704,39.766 -64.626,71.507 -99.462,104c-91.997,85.806 -197.73,151.147 -311.584,203.803c-5.014,2.319 -10.266,4.124 -16.952,6.422c-15.617,-8.585 -16.405,-21.325 -11.274,-37.239Z" style="fill:#db5360;fill-rule:nonzero;"/><path d="M4169.01,2960.01c4.707,-37.926 10.214,-74.467 16.701,-110.834c11.949,-66.984 23.102,-134.042 31.362,-201.634c7.878,-64.477 7.799,-129.29 12.224,-195.783c11.785,-13.069 24.154,-12.909 38.507,-3.614c3.797,50.066 0.63,98.287 -2.681,146.764c-6.1,89.342 -24.026,176.792 -36.948,265.031c-4.903,33.479 -12.123,66.619 -19.17,101.227c-13.823,12.942 -26.409,11.181 -39.995,-1.157Z" style="fill:#d75562;fill-rule:nonzero;"/><path d="M4338.66,3499.26c-0.638,-13.031 -0.446,-26.696 0.781,-40.267c0.594,-6.561 -0.948,-10.607 -8.749,-12.781c6.455,-21.3 18.367,-40.55 20.4,-63.96c4.205,-48.43 -17.665,-83.524 -53.762,-112.068c-31.376,-24.81 -68.141,-39.017 -105.172,-52.615c-7.708,-2.83 -15.401,-5.703 -24.483,-9.253c-13.388,-0.427 -23.507,-7.777 -36.495,-9.568c-7.799,-0.336 -14.235,-0.155 -22.499,0.371c-1.828,0.346 -3.393,0.037 -4.005,-0.474c-6.206,-0.316 -11.444,-2.601 -17.004,-2.807c-6.131,-0.226 -13.176,0.546 -14.938,-7.716c-1.47,-6.89 2.551,-11.925 7.168,-16.284c5.512,-5.204 13.046,-7.792 19.581,-14.435c7.117,-1.353 12.746,-1.244 19.717,0.175c2.087,1.116 2.834,1.19 4.627,1.676c1.853,0.487 2.66,0.563 4.487,-0.024c1.203,-1.387 1.387,-2.111 2.028,-3.859c0.511,-3.344 1.273,-5.402 4.035,-8.288c11.637,-6.905 22.113,-10.89 34.696,-2.335c0.779,18.425 9.322,26.124 26.063,31.011c41.354,12.074 81.057,28.763 117.052,52.999c98.897,66.589 110.748,182.59 26.472,270.502Z" style="fill:#934041;fill-rule:nonzero;"/><path d="M888.331,2057.32c-1.116,1.457 -1.226,2.237 -1.869,4.07c-0.776,1.871 -1.018,2.689 -2.232,4.339c-1.065,1.565 -1.159,2.298 -1.662,4.059c-12.62,48.476 -13.082,95.987 -0.736,145.269c0.733,2.342 1.007,2.983 1.383,4.665c0.728,1.651 1.355,2.263 2.371,4.127c0.862,3.035 1.334,4.817 1.857,7.989c0.658,1.978 1.266,2.564 2.004,4.41c0.524,2.017 0.919,2.773 1.573,4.783c5.544,9.995 2.155,16.052 -6.521,18.656c-11.447,3.436 -22.19,0.969 -29.352,-9.174c-7.215,-10.218 -9.464,-22.692 -13.586,-36.203c-0.643,-4.416 -1.089,-6.999 -1.457,-10.895c-0.537,-5.586 -3.025,-9.365 -3.526,-15.01c-1.097,-7.015 -1.873,-12.772 -2.509,-20.282c-1.427,-14.389 -0.728,-27.056 -0.132,-41.282c0.653,-10.111 1.051,-18.659 2.017,-28.945c2.013,-7 0.716,-12.817 4.192,-19.064c7.29,-50.432 34.643,-85.079 77.075,-108.675c29.438,-16.371 61.017,-26.336 96.45,-29.321c6.29,-2.751 11.198,-3.633 17.918,-2.946c33.628,-3.624 65.8,-2.098 99.897,-0.581c13.209,-1.004 23.845,2.248 34.653,4.651c11.321,2.518 17.119,9.046 15.342,20.636c-1.914,12.481 -10.132,17.841 -22.306,16.122c-43.433,-6.13 -86.96,-1.019 -132.309,-1.022c-2.56,0.724 -3.247,0.98 -5.033,1.293c-5.172,3.991 -10.344,1.488 -16.303,2.894c-35.555,10.337 -69.819,20.019 -98.021,45.992c-1.109,1.929 -1.249,2.722 -2.544,3.871c-1.155,0.355 -1.17,1.246 -1.615,1.26c-0.746,0.845 -1.047,1.674 -2.486,3.182c-1.138,0.679 -1.073,1.048 -1.26,1.068c-0.7,0.806 -1.214,1.593 -2.813,3.281c-1.268,1.655 -1.451,2.409 -2.169,4.197c-0.711,1.839 -0.888,2.645 -2.117,4.099c-1.31,1.48 -1.568,2.311 -2.495,4.263c-0.671,1.929 -0.672,2.737 -1.679,4.224Z" style="fill:#6f342f;fill-rule:nonzero;"/><path d="M2994.62,4518.39c1.892,-0.469 2.666,-0.756 4.66,-1.267c2.497,-1.782 4.162,-2.56 7.574,-2.961c3.324,-0.647 5.234,-1 8.601,-1.461c1.949,-0.747 2.44,-1.388 4.11,-2.301c3,-0.811 4.82,-1.35 8.072,-1.978c3.112,-1.842 5.335,-2.13 8.68,-2.583c1.795,-0.56 2.487,-0.903 4.325,-1.405c2.682,-2.112 4.927,-2.295 8.227,-2.82c2.907,-0.692 4.725,-1.129 7.945,-1.675c14.061,11.901 12.259,25.043 3.001,40.257c-2.932,1.876 -4.431,2.151 -7.073,2.364c-3.985,0.682 -6.152,2.68 -9.962,4.651c-88.334,27.748 -176.243,51.145 -268.844,62.046c-5.349,1.608 -8.818,3.436 -14.289,3.655c-7.33,0.982 -13.214,1.774 -20.9,2.47c-31.337,2.725 -40.839,-7.29 -31.666,-34.299c3.047,-1.62 4.799,-1.876 7.885,-2.085c14.05,-3.261 26.711,-6.91 41.68,-6.622c2.28,-0.694 2.956,-0.979 4.724,-1.405c3.895,-3.115 7.644,-1.88 12.276,-2.717c63.655,-12.834 126.276,-24.253 187.488,-41.995c3.266,-0.946 6.841,-0.831 11.98,-1.281c3.482,-1.745 5.752,-2.018 9.076,-2.737c1.689,-0.724 2.317,-1.026 3.986,-1.424c2.843,-1.669 5.058,-2.036 8.444,-2.427Z" style="fill:#a54549;fill-rule:nonzero;"/><path d="M1026.92,1978.49c30.068,-4.652 62.065,-8.603 94.489,-5.742c12.358,1.091 24.782,1.529 37.185,1.972c9.772,0.349 15.654,-3.903 16.335,-14.38c0.611,-9.408 -3.744,-13.965 -12.737,-15.44c-8.807,-1.445 -17.514,-3.494 -27.521,-6.254c30.572,-2.945 61.407,4.168 90.684,14.492c14.134,4.984 21.29,2.99 30.698,-7.368c20.966,0.161 18.409,14.814 18.475,27.492c0.036,7.042 -5.957,12.315 -7.255,21.039c-21.256,25.872 -41.493,50.388 -62.851,73.884c-7.395,8.135 -13.446,20.95 -29.621,14.053c-26.204,-11.172 -26.741,-10.818 -8.683,-34.004c14.359,-18.437 29.538,-36.235 45.098,-55.226c-59.938,-20.737 -121.456,-13.802 -184.296,-14.518Z" style="fill:#934041;fill-rule:nonzero;"/><path d="M4181.99,1988.61c-0.932,-4.32 -1.351,-7.385 -1.277,-11.938c5.211,-12.818 13.656,-15.882 26.452,-11.706c1.46,0.83 1.937,0.721 2.037,0.944c0.121,1.775 0.841,2.864 3.282,3.597c2.401,1.82 3.779,3.534 6.114,5.805c7.41,18.06 13.863,35.564 20.489,54.614c-0.111,4.994 2.683,7.138 4.203,11.1c1.353,5.069 2.258,9.05 3.397,14.548c0.875,3.945 2.511,5.975 3.073,9.71c0.541,4.032 1.021,6.814 1.513,11.011c1.264,5.379 3.252,9.14 3.523,14.669c1.014,5.598 1.816,9.959 2.541,15.996c0.554,3.79 1.023,5.941 1.541,9.205c4.516,14.18 3.535,27.877 4.718,43.156c2.537,6.485 3.193,11.447 1.777,18.463c-9.534,10.8 -20.139,13.177 -33.763,8.939c-7.849,-15.331 -5.975,-31.007 -9.346,-47.605c-0.784,-4.758 -1.067,-7.827 -1.38,-12.439c-6.083,-19.497 -5.127,-38.792 -11.112,-58.449c-0.709,-2.273 -0.922,-2.948 -1.258,-4.68c-2.056,-2.723 -2.215,-5.07 -2.865,-8.469c-0.591,-1.759 -0.852,-2.402 -1.245,-4.079c-2.149,-2.696 -2.273,-5.079 -2.655,-8.576c-0.422,-1.813 -0.747,-2.451 -1.287,-4.142c-2.412,-2.496 -2.479,-4.851 -3.061,-8.218c-0.52,-1.803 -0.781,-2.486 -1.222,-4.249c-0.891,-1.628 -1.6,-2.175 -2.556,-4.042c-0.587,-2.017 -0.927,-2.713 -1.416,-4.562c-2.665,-2.356 -2.527,-4.827 -3.061,-8.182c-0.106,-1.155 -0.893,-1.476 -0.825,-1.896c-5.703,-4.706 -2.017,-12.296 -6.331,-18.525Z" style="fill:#5e3028;fill-rule:nonzero;"/><path d="M4324.14,1834.36c1.168,-1.446 1.324,-2.136 2.072,-3.705c21.735,-11.762 32.452,-5.035 33.068,21.738c-1.074,1.56 -1.035,1.807 -1.134,1.732c-0.931,1.007 -1.777,2.077 -3.127,4.034c-17.84,47.6 -50.589,82.893 -86.15,116.002c-12.621,11.752 -26.011,16.232 -40.651,0.061c-4.384,-15.029 5.045,-23.951 13.914,-32.583c22.898,-22.285 43.788,-46.222 62.874,-73.648c0.997,-2.023 1.202,-2.818 2.502,-4.174c1.33,-1.401 1.563,-2.242 2.44,-4.223c0.638,-1.934 0.633,-2.729 1.777,-3.84c1.148,-0.317 1.082,-1.21 1.527,-1.254c0.782,-0.89 1.119,-1.737 2.48,-3.488c1.149,-1.647 1.273,-2.39 1.954,-4.115c0.786,-1.784 1.016,-2.584 2.307,-4.043c1.22,-1.458 1.377,-2.257 2.036,-4.171c0.701,-1.932 0.901,-2.75 2.111,-4.323Z" style="fill:#6f342f;fill-rule:nonzero;"/><path d="M3381.88,1025.38c5.493,17.463 18.682,31.366 20.146,51.587c0.477,1.869 0.345,1.799 0.275,1.78c-4.646,0.136 -9.088,-0.565 -15.643,-2.391c-20.87,-15.402 -44.713,-17.919 -66.074,-26.375c-27.444,-10.864 -56.802,-15.103 -86.378,-23.374c-12.155,-14.322 -30.04,-22.469 -30.892,-43.836c54.832,0.818 105.244,17.646 155.272,36.165c7.04,2.606 14.45,4.208 23.294,6.444Z" style="fill:#cb545e;fill-rule:nonzero;"/><path d="M903.813,2540.15c-13.249,-0.994 -25.636,-3.219 -39.455,-6.069c14.659,-44.975 36.44,-86.602 60.472,-128.586c13.509,-3.785 26.211,-4.778 40.119,-5.913c11.701,7.587 2.767,14.359 0.014,19.947c-19.705,39.99 -40.107,79.636 -61.15,120.621Z" style="fill:#ba4c53;fill-rule:nonzero;"/><path d="M3202.59,980.976c9.049,15.719 27.591,23.024 30.561,42.935c-7.069,1.219 -14.142,0.9 -22.947,0.216c-4.727,-2.549 -8.134,-3.294 -13.099,-3.241c-19.436,-0.34 -37.542,-0.679 -57.544,-1.356c-18.739,-6.436 -36.618,0.246 -54.831,-5.734c-5.418,-14.371 -18.594,-15.144 -28.288,-20.519c-6.33,-3.509 -14.791,-3.466 -18.527,-13.033c15.259,-2.422 30.889,-3.415 48.316,-4.266c12.929,-1.818 24.119,-0.985 36.794,-0.208c18.477,1.19 35.462,2.057 54.287,3.146c5.095,0.268 8.354,0.207 12.77,1.019c4.447,0.342 7.704,0.407 12.508,1.041Z" style="fill:#ba4c53;fill-rule:nonzero;"/><path d="M2415.4,1138.75c1.679,19.07 -19.604,29.12 -18.749,50.165c-38.043,20.031 -76.224,38.333 -115.938,56.777c-14.973,-14.944 -14.643,-22.684 1.514,-44.038c43.224,-24.933 87.153,-44.516 133.173,-62.904Z" style="fill:#ba4c53;fill-rule:nonzero;"/><path d="M3890.58,3829.93c8.95,9.855 13.433,23.138 28.694,28.071c-17.518,37.999 -44.163,70.419 -70.847,104.371c-21.493,6.621 -29.145,1.325 -32.095,-22.787c1.926,-3.953 3.282,-6.159 5.4,-9.438c0.96,-1.81 1.159,-2.546 2.406,-3.734c22.409,-32.282 43.768,-64.112 66.442,-96.483Z" style="fill:#934041;fill-rule:nonzero;"/><path d="M3685.56,4149.98c-13.738,-3.36 -24.517,-9.549 -30.661,-23.597c30.465,-35.687 61.538,-70.101 93.907,-105.072c10.717,7.5 18.724,16.864 26.824,27.945c-16.526,28.396 -39.328,50.481 -62.445,71.878c-9.608,8.893 -18.553,17.918 -27.625,28.846Z" style="fill:#c34d56;fill-rule:nonzero;"/><path d="M4167.44,2960.22c12.614,-0.361 24.907,0.949 38.938,2.26c-3.633,38.166 -8.093,76.488 -18.931,115.054c-18.266,6.683 -34.338,13.378 -39.05,33.708c-0.556,2.399 -4.287,3.141 -8.407,2.183c8.246,-51.028 17.688,-101.281 27.45,-153.205Z" style="fill:#ba4c53;fill-rule:nonzero;"/><path d="M4346.99,1544.36c12.463,-5.402 24.929,-8.979 39.474,-3.023c5.923,5.634 7.118,12.111 8.28,20.047c0.683,3.56 1.36,5.674 2.787,8.695c8.986,33.919 7.729,67.508 7.262,102.969c-17.896,9.339 -23.294,7.255 -35.653,-13.202c-1.506,-7.641 -2.336,-13.769 -4.43,-21.152c-1.053,-11.249 -1.441,-21.128 -1.67,-32.86c-0.302,-4.097 -0.989,-6.257 -2.779,-9.207c-1.753,-18.293 -7.696,-34.375 -13.271,-52.267Z" style="fill:#c34d56;fill-rule:nonzero;"/><path d="M1410.84,1792.14c18.534,2.667 14.687,19.807 21.855,31.581c-27.579,28.87 -55.779,56.362 -85.272,84.373c-18.328,-7.004 -21.981,-16.425 -15.286,-40.013c23.548,-29.239 51.298,-51.45 78.703,-75.941Z" style="fill:#c34d56;fill-rule:nonzero;"/><path d="M2281.97,1200.61c1.162,14.065 -8.902,27.279 -3.022,43.731c-29.081,21.085 -62.348,33.137 -94.372,50.649c-4.057,-11.226 -6.676,-22.794 -9.643,-36.047c31.896,-26.231 69.834,-40.086 107.037,-58.333Z" style="fill:#cb545e;fill-rule:nonzero;"/><path d="M3777.2,4049.83c-15,-2.982 -27.762,-7.864 -27.067,-27.475c21.386,-28.844 42.806,-56.086 65.501,-83.921c7.045,11.313 13.209,22.792 30.094,24.553c-17.358,32.066 -42.15,59.257 -68.528,86.843Z" style="fill:#a54549;fill-rule:nonzero;"/><path d="M3244.05,4424.66c4.416,11.697 7.29,23.582 10.321,37.22c-31.771,20.792 -66.163,34.241 -102.718,46.495c-14.416,-12.015 -11.985,-25.275 -3.191,-40.603c32.236,-15.434 63.14,-29.179 95.588,-43.112Z" style="fill:#cb545e;fill-rule:nonzero;"/><path d="M1331.99,1867.11c3.173,13.199 5.972,26.666 13.109,40.369c-24.577,29.93 -50.177,58.723 -77.09,88.047c-6.502,-7.411 -2.989,-15.395 -1.947,-23.588c1.116,-8.768 2.649,-18.256 -7.37,-25.875c21.506,-28.254 44.737,-55.259 73.298,-78.953Z" style="fill:#a54549;fill-rule:nonzero;"/><path d="M2706.57,4579.43c0.488,19.319 5.049,33.864 29.13,35.162c-12.522,10.491 -29.129,5.772 -44.254,9.152c-21.776,4.865 -44.464,5.65 -68.518,7.813c-4.446,-12.432 -7.137,-24.501 -10.095,-38.124c29.894,-9.929 61.189,-10.098 93.737,-14.003Z" style="fill:#c34d56;fill-rule:nonzero;"/><path d="M3148.39,4466.21c1.495,12.723 1.587,25.573 1.676,40.344c-27.706,17.718 -58.328,25.734 -90.062,35.172c-1.65,-12.653 -1.681,-25.374 -1.749,-39.998c4.624,-7.595 12.347,-6.287 19.412,-9.994c3.15,-1.867 5.357,-2.109 8.606,-2.734c1.769,-0.614 2.488,-0.875 4.335,-1.345c1.698,-0.813 2.269,-1.417 3.997,-2.481c5.806,-1.988 10.455,-3.515 16.512,-5.515c1.958,-1.081 2.507,-1.689 4.243,-2.605c3.1,-0.744 5.011,-1.179 8.387,-1.796c1.983,-0.825 2.504,-1.468 4.192,-2.533c2.998,-0.841 4.829,-1.261 8.071,-1.79c2.021,-0.721 2.629,-1.332 4.424,-2.461c2.974,-1.057 4.763,-1.597 7.956,-2.264Z" style="fill:#ba4c53;fill-rule:nonzero;"/><path d="M4369.17,1653.58c7.702,13.821 18.972,19.064 33.827,21.36c6.019,34.468 -3.698,66.907 -13.491,100.487c-12.545,-3.442 -18.787,-20.982 -36.7,-12.69c4.122,-34.919 13.72,-69.041 11.234,-106.403c1.359,-2.367 2.423,-2.962 5.13,-2.754Z" style="fill:#a54549;fill-rule:nonzero;"/><path d="M840.896,2213.7c8.387,4.828 7.792,14.591 11.012,22.715c7.15,18.039 27.299,22.533 39.155,7.385c8.495,15.381 16.773,32.28 25.301,50.669c0.861,1.99 1.472,2.49 2.246,4.162c0.535,1.988 0.907,2.803 1.613,4.919c3.353,10.327 7.281,19.719 -1.717,27.455c-7.512,6.459 -15.979,6.716 -26.1,-0.127c-26.874,-35.775 -42.398,-74.562 -51.51,-117.178Z" style="fill:#934041;fill-rule:nonzero;"/><path d="M4269.45,2447.8c-12.249,1.97 -24.156,2.051 -37.89,2.113c-1.927,-29.464 -2.026,-58.912 -1.614,-90.293c11.887,-12.697 24.122,-12.313 38.289,-3.299c1.75,3.452 2.124,5.461 2.474,9.007c0.151,8.809 0.267,16.08 -0.239,24.707c-0.322,19.529 -0.499,37.702 -1.02,57.765Z" style="fill:#c34d56;fill-rule:nonzero;"/><path d="M4350.93,1763.55c5.964,-5.084 4.718,-18.511 14.983,-14.501c10.393,4.06 21.209,10.119 22.143,25.74c-3.221,29.236 -13.443,54.445 -28.491,78.793c-4.535,-15.024 -11.196,-26.377 -31.213,-23.93c2.067,-8.983 5.687,-18.089 10.032,-28.524c0.982,-3.259 1.246,-5.188 2.426,-8.256c2.399,-5.814 3.887,-10.487 5.839,-16.575c0.943,-3.285 1.307,-5.177 2.559,-8.147c1.081,-1.864 1.178,-2.668 1.722,-4.6Z" style="fill:#934041;fill-rule:nonzero;"/><path d="M4269.88,2355.88c-12.13,1.93 -23.99,1.972 -37.638,1.912c-2.001,-5.789 -2.216,-11.477 -2.035,-18.844c1.937,-23.935 0.505,-46.224 1.525,-70.347c10.18,-12.658 21.71,-15.292 36.414,-7.754c4.644,31.964 2.053,62.564 1.734,95.033Z" style="fill:#934041;fill-rule:nonzero;"/><path d="M891.048,2331.13c14.122,-2.277 32.202,1.878 29.504,-24.59c6.863,7.065 9.397,17.97 11.163,28.143c4.329,24.946 18.686,43.834 34.031,64.087c-10.781,11.989 -22.659,18.919 -38.652,6.559c0.595,-20.826 -15.584,-32.95 -22.726,-49.073c-3.631,-8.196 -8.586,-15.806 -13.32,-25.126Z" style="fill:#a54549;fill-rule:nonzero;"/><path d="M4269.81,2260.36c-11.045,3.271 -21.751,4.651 -34.121,5.925c-10.192,-26.358 -6.756,-53.587 -6.937,-81.872c10.929,-2.749 20.573,-4.041 31.882,-5.376c5.783,2.072 5.817,6.079 6.461,11.326c3.825,23.543 2.386,45.87 2.715,69.997Z" style="fill:#793935;fill-rule:nonzero;"/><path d="M4138.39,3114.21c5.805,-3.543 6.603,-8.047 7.535,-13.072c4.388,-23.655 11.844,-28.198 39.094,-23.045c0.972,5.242 0.575,9.881 -0.521,16.124c-1.166,5.39 -1.148,9.291 -3.994,13.943c-3.537,12.411 -6.4,23.551 -9.719,36.223c-11.441,2.931 -22.426,4.331 -35.092,5.822c-3.684,-1.377 -4.543,-3.345 -3.338,-7.261c1.036,-3.318 1.153,-5.188 1.784,-8.368c0.866,-2.129 1.219,-2.949 2.356,-4.853c1.018,-5.375 1.252,-9.665 1.895,-15.513Z" style="fill:#a54549;fill-rule:nonzero;"/><path d="M833.504,2126.71c6.222,11.127 4.164,24.023 1.534,38.281c-5.79,-11.202 -3.959,-24.025 -1.534,-38.281Z" style="fill:#934041;fill-rule:nonzero;"/><path d="M3123.3,975.072c-9.85,6.114 -21.222,4.467 -33.94,1.804c9.645,-7.6 21.175,-5.373 33.94,-1.804Z" style="fill:#cb545e;fill-rule:nonzero;"/><path d="M4267.82,2190.41c-2.092,-1.923 -3.659,-5.236 -5.369,-9.98c0.011,-6.207 0.166,-10.983 0.731,-17.518c8.277,6.457 5.513,16.488 4.638,27.498Z" style="fill:#934041;fill-rule:nonzero;"/><path d="M4271.22,2390.25c-5.847,-5.976 -5.274,-13.455 -1.436,-22.234c5.7,5.987 5.087,13.469 1.436,22.234Z" style="fill:#d75562;fill-rule:nonzero;"/><path d="M839.558,2078.57c2.103,4.753 2.969,10.541 -1.988,16.683c-3.745,-5.031 -2.119,-10.419 1.988,-16.683Z" style="fill:#934041;fill-rule:nonzero;"/><path d="M1032.05,1937.41c-3.186,4.461 -8.333,4.273 -15.068,3.653c2.596,-5.65 8.106,-5.744 15.068,-3.653Z" style="fill:#934041;fill-rule:nonzero;"/><path d="M4255.52,2090.95c-4.69,-1.675 -5.474,-5.877 -4.588,-11.903c4.199,1.763 5.643,5.81 4.588,11.903Z" style="fill:#934041;fill-rule:nonzero;"/><path d="M2759.43,4613.69c1.594,-4.483 5.571,-5.312 11.375,-4.61c-1.458,4.272 -5.05,6.474 -11.375,4.61Z" style="fill:#c34d56;fill-rule:nonzero;"/><path d="M3019.79,979.013c-2.072,3.749 -5.421,4.47 -10.128,2.164c1.792,-4.474 5.206,-5.158 10.128,-2.164Z" style="fill:#cb545e;fill-rule:nonzero;"/><path d="M3190.52,979.327c-2.592,3.632 -6.069,4.151 -10.547,0.655c2.567,-3.42 6.075,-4.074 10.547,-0.655Z" style="fill:#cb545e;fill-rule:nonzero;"/><path d="M4180.87,3108.58c-1.639,-3.434 -2.333,-7.734 2.001,-12.04c3.813,3.808 2.705,7.702 -2.001,12.04Z" style="fill:#ba4c53;fill-rule:nonzero;"/><path d="M835.77,2188.45c5.08,1.573 5.834,5.924 4.776,12.241c-4.203,-1.831 -5.796,-5.961 -4.776,-12.241Z" style="fill:#934041;fill-rule:nonzero;"/><path d="M4259.42,2116.14c-3.289,-0.547 -4.85,-2.75 -2.759,-6.849c1.452,1.473 2.302,3.604 2.759,6.849Z" style="fill:#934041;fill-rule:nonzero;"/><path d="M4398.19,1569.91c-3.257,-0.045 -6.017,-1.449 -3.931,-6.332c1.736,1.205 2.943,3.176 3.931,6.332Z" style="fill:#db5360;fill-rule:nonzero;"/><path d="M3042.71,4548c0.267,-3.388 2.662,-5.377 7.604,-5.572c-1.275,1.948 -3.836,3.83 -7.604,5.572Z" style="fill:#ba4c53;fill-rule:nonzero;"/><path d="M4243.89,2040.91c-3.582,-0.407 -5.33,-3.087 -4.959,-8.168c1.924,1.477 3.517,4.22 4.959,8.168Z" style="fill:#934041;fill-rule:nonzero;"/><path d="M4250.28,2065.73c-1.575,-1.469 -2.695,-3.748 -3.585,-7.331c3.549,0.307 4.522,3.06 3.585,7.331Z" style="fill:#934041;fill-rule:nonzero;"/><path d="M4355.17,1858.26c-0.097,-0.512 0.449,-1.822 1.934,-3.671c0.277,0.651 -0.467,1.789 -1.934,3.671Z" style="fill:#934041;fill-rule:nonzero;"/><path d="M1442.46,4027.66c-31.006,-5.759 -59.669,-12.726 -84.523,-30.454c-5.133,-3.662 -9.327,-7.622 -13.153,-12.755c-8.33,-11.174 -9.417,-21.457 1.087,-31.329c10.578,-9.942 25.447,-11.406 33.87,-2.11c37.327,41.198 89.221,36.626 136.373,44.557c39.442,6.634 80.211,8.631 120.232,5.02c60.469,-5.457 105.277,18.27 141.789,64.885c31.232,39.873 73.9,65.2 119.783,85.329c57.946,25.42 119.53,36.446 181.501,45.794c14.847,2.239 27.915,6.043 27.857,24.095c-0.041,12.859 -16.074,21.834 -33.768,19.193c-83.428,-12.452 -165.366,-29.975 -239.717,-72.474c-13.85,-7.916 -28.083,-10.223 -43.612,-5.24c-39.685,12.736 -80.743,12.112 -120.908,6.353c-48.874,-7.007 -79.926,-38.697 -96.203,-84.354c-15.973,-44.801 -15.374,-45.13 -63.425,-46.745c-22.191,-0.746 -43.889,-4.496 -67.183,-9.765Z" style="fill:#6b3732;fill-rule:nonzero;"/><path d="M2258.93,4161.89c-18.096,-29.712 -12.711,-79.304 10.026,-103.352c16.973,-17.951 52.648,-8.524 63.188,17.535c12.504,30.915 4.763,60.214 -12.104,86.784c-10.42,16.415 -35.021,15.36 -61.11,-0.967Z" style="fill:#5e3028;fill-rule:nonzero;"/><path d="M1271.07,3671.68c5.167,33.717 0.982,63.341 -23.765,86.924c-12.211,11.636 -26.019,10.694 -40.015,3.199c-14.303,-7.659 -21.34,-19.567 -19.034,-35.779c2.727,-19.177 8.338,-37.654 16.64,-55.172c6.821,-14.393 16.322,-25.885 34.129,-25.889c17.069,-0.004 25.96,10.645 32.045,26.717Z" style="fill:#5e3028;fill-rule:nonzero;"/><path d="M4098.94,3158.01c-0.109,4.972 -1.035,9.027 -3.284,12.118c-4.911,6.751 -19.309,7.74 -16.818,17.283c2.098,8.036 16.01,3.362 24.064,9.921c-26.113,1.75 -53.478,-0.24 -80.542,6.239c-12.693,3.039 -25.734,0.768 -29.444,-15.013c-3.116,-13.252 1.423,-23.131 17.628,-26.155c29.587,-8.519 58.349,-6.138 88.396,-4.393Z" style="fill:#a54549;fill-rule:nonzero;"/><path d="M4229.89,2181.18c1.403,28.262 2.656,54.746 4.024,83.115c-0.49,24.586 -1.096,47.288 -2.506,71.48c-3.536,-63.919 -4.423,-129.415 -9.985,-196.508c8.719,11.065 7.32,25.829 8.467,41.913Z" style="fill:#a54549;fill-rule:nonzero;"/><path d="M882.58,2215c-16.747,-33.592 -13.208,-70.931 -10.06,-107.893c0.962,-11.294 0.356,-23.757 8.633,-35.139c-1.371,17.762 -3.801,36.672 -6.109,55.597c-3.551,29.114 3.297,57.295 7.536,87.435Z" style="fill:#934041;fill-rule:nonzero;"/><path d="M3081.72,1012.61c19.247,1.933 37.357,-4.418 55.166,5.234c-28.552,1.711 -57.886,2.069 -89.149,2.075c8.205,-8.833 20.423,-7.066 33.983,-7.309Z" style="fill:#cb545e;fill-rule:nonzero;"/><path d="M4102.03,3159.24c-30.021,-3.141 -58.109,0.548 -88.086,3.213c32.812,-14.683 68.897,-5.913 105.506,-5.195c-4.519,1.528 -10.134,1.689 -17.42,1.982Z" style="fill:#ba4c53;fill-rule:nonzero;"/><path d="M4208.96,2068.36c10.594,15.203 9.938,34.548 12.183,54.983c-10.555,-15.181 -7.316,-35.155 -12.183,-54.983Z" style="fill:#a54549;fill-rule:nonzero;"/><path d="M4130.88,3199.21c11.859,-5.149 21.953,3.493 34.341,7.502c-11.334,2.853 -21.675,-4.753 -34.341,-7.502Z" style="fill:#a54549;fill-rule:nonzero;"/><path d="M4208.25,1964.45c-8.638,1.87 -18.132,0.961 -25.725,10.195c2.177,-15.391 12.087,-17.164 25.725,-10.195Z" style="fill:#a54549;fill-rule:nonzero;"/><path d="M2756.5,4571.67c-10.752,4.417 -23.433,7.578 -38.455,7.498c9.995,-8.067 23.316,-8.109 38.455,-7.498Z" style="fill:#c34d56;fill-rule:nonzero;"/><path d="M4370.78,1652.92c-1.047,1.534 -2.125,1.605 -4.825,1.659c-1.972,-4.82 -2.323,-9.625 -2.29,-15.842c7.244,1.104 6.948,7.014 7.115,14.183Z" style="fill:#d75562;fill-rule:nonzero;"/><path d="M4181.2,1988.69c7.51,2.083 6.155,9.202 7.296,16.614c-5.807,-2.717 -4.463,-9.995 -7.296,-16.614Z" style="fill:#a54549;fill-rule:nonzero;"/><path d="M3196.59,1022.04c3.358,-5.264 7.37,-6.114 11.474,0.576c-3.281,0.957 -6.97,0.769 -11.474,-0.576Z" style="fill:#cb545e;fill-rule:nonzero;"/><path d="M3385.23,1077.22c3.72,-0.887 8.263,-0.643 14.901,0.556c-3.473,8.354 -8.736,2.8 -14.901,-0.556Z" style="fill:#db5360;fill-rule:nonzero;"/><path d="M4359.53,1596.81c3.643,-0.221 6.695,1.023 4.297,6.4c-1.907,-1.227 -3.191,-3.225 -4.297,-6.4Z" style="fill:#d75562;fill-rule:nonzero;"/><path d="M1005.63,1982.7c2.455,-3.905 7.31,-4.001 13.649,-3.826c-1.942,5.413 -7.423,3.552 -13.649,3.826Z" style="fill:#934041;fill-rule:nonzero;"/><path d="M2997.35,1024.22c2.627,-3.759 7.535,-3.646 13.9,-3.416c-2.105,5.393 -7.56,3.46 -13.9,3.416Z" style="fill:#cb545e;fill-rule:nonzero;"/><path d="M4132.16,3142.36c1.253,1.09 1.391,3.047 1.692,6.469c-0.333,2.526 -0.949,3.511 -2.369,4.969c-0.601,-3.158 -0.52,-6.865 0.677,-11.438Z" style="fill:#ba4c53;fill-rule:nonzero;"/><path d="M2773.55,4567.58c-1.906,1.345 -5.178,2.367 -9.77,3.316c0.782,-4.366 4.771,-3.517 9.77,-3.316Z" style="fill:#c34d56;fill-rule:nonzero;"/><path d="M2982.04,4521.58c-0.826,1.242 -2.861,2.248 -6.057,3.289c0.842,-1.152 2.845,-2.338 6.057,-3.289Z" style="fill:#ba4c53;fill-rule:nonzero;"/><path d="M2994.54,4517.89c-0.882,1.155 -2.961,1.995 -6.182,2.831c0.901,-1.051 2.943,-2.098 6.182,-2.831Z" style="fill:#ba4c53;fill-rule:nonzero;"/><path d="M3007.1,4513.58c-0.708,1.243 -2.584,2.204 -5.531,3.239c0.74,-1.123 2.552,-2.322 5.531,-3.239Z" style="fill:#ba4c53;fill-rule:nonzero;"/><path d="M3036.23,4505.38c-0.843,1.141 -2.872,2.035 -6.033,2.943c0.861,-1.054 2.854,-2.121 6.033,-2.943Z" style="fill:#ba4c53;fill-rule:nonzero;"/><path d="M3048.76,4501.08c-0.778,1.222 -2.756,2.167 -5.852,3.153c0.806,-1.115 2.729,-2.272 5.852,-3.153Z" style="fill:#ba4c53;fill-rule:nonzero;"/><path d="M3086.13,4488.39c-0.797,1.201 -2.787,2.145 -5.9,3.109c0.821,-1.108 2.764,-2.237 5.9,-3.109Z" style="fill:#d75562;fill-rule:nonzero;"/><path d="M4204.98,2055.2c1.477,0.8 2.61,2.834 3.58,6.081c-1.417,-0.807 -2.67,-2.827 -3.58,-6.081Z" style="fill:#a54549;fill-rule:nonzero;"/><path d="M4201.32,2042.48c1.324,0.879 2.32,2.988 3.132,6.293c-1.276,-0.891 -2.368,-2.977 -3.132,-6.293Z" style="fill:#a54549;fill-rule:nonzero;"/><path d="M4349.11,1767.59c0.526,1.559 -0.029,3.612 -1.29,6.481c-0.402,-1.452 -0.096,-3.718 1.29,-6.481Z" style="fill:#a54549;fill-rule:nonzero;"/><path d="M4340.7,1792.34c0.579,1.496 0.14,3.602 -0.947,6.583c-0.455,-1.408 -0.264,-3.691 0.947,-6.583Z" style="fill:#a54549;fill-rule:nonzero;"/><path d="M3949.36,3726.54c0.518,1.618 -0.067,3.513 -1.413,6.08c-0.404,-1.487 -0.047,-3.645 1.413,-6.08Z" style="fill:#934041;fill-rule:nonzero;"/><path d="M4196.82,2030.18c1.433,0.743 2.543,2.721 3.541,5.875c-3.082,0.346 -3.69,-2.007 -3.541,-5.875Z" style="fill:#a54549;fill-rule:nonzero;"/><path d="M4188.87,2009.05c1.282,0.774 2.394,2.725 3.346,5.842c-1.279,-0.777 -2.398,-2.721 -3.346,-5.842Z" style="fill:#a54549;fill-rule:nonzero;"/><path d="M886.197,2224.11c-1.424,0.517 -2.241,-0.33 -2.778,-2.447c1.406,-0.739 2.44,0.046 2.778,2.447Z" style="fill:#934041;fill-rule:nonzero;"/><path d="M4320.13,1842.42c0.878,0.949 0.426,1.926 -1.165,3.106c-1.415,-1.001 -1.09,-2.095 1.165,-3.106Z" style="fill:#934041;fill-rule:nonzero;"/><path d="M4324.19,1833.85c0.974,0.947 0.578,1.971 -0.954,3.279c-1.56,-0.939 -1.32,-2.101 0.954,-3.279Z" style="fill:#934041;fill-rule:nonzero;"/><path d="M4324.4,3451.2c0.688,0.921 0.23,1.7 -1.125,2.638c-1.307,-0.948 -1.014,-1.928 1.125,-2.638Z" style="fill:#934041;fill-rule:nonzero;"/><path d="M4307.69,1863.42c0.827,0.961 0.362,1.886 -1.194,2.983c-1.356,-1.002 -1.025,-2.067 1.194,-2.983Z" style="fill:#934041;fill-rule:nonzero;"/><path d="M888.153,2057.68c-0.936,-0.743 -0.663,-1.694 0.589,-3c1.533,0.705 1.414,1.754 -0.589,3Z" style="fill:#934041;fill-rule:nonzero;"/><path d="M4328.3,3446.3c0.797,0.925 0.278,2.013 -1.411,3.398c-1.131,-0.968 -0.711,-2.146 1.411,-3.398Z" style="fill:#934041;fill-rule:nonzero;"/><path d="M4106.96,3199.96c-0.109,-0.493 -0.205,-0.219 -0.236,-0.342c-0.031,-0.121 -0.489,1.097 -0.489,1.097c-0,-0 0.835,-0.262 0.725,-0.755Z" style="fill:#a54549;fill-rule:nonzero;"/><path d="M3140.65,4467.89c0.316,1.064 -0.535,1.832 -2.412,2.656c-0.529,-1.07 0.227,-2.073 2.412,-2.656Z" style="fill:#cb545e;fill-rule:nonzero;"/><path d="M4128.19,3158.7c0.049,0.533 -1.051,1.201 -2.731,1.416c0.141,-0.729 0.861,-1.005 2.731,-1.416Z" style="fill:#ba4c53;fill-rule:nonzero;"/><path d="M3128.16,4472.18c0.361,1.083 -0.423,1.826 -2.186,2.621c-0.69,-1.128 -0.016,-2.132 2.186,-2.621Z" style="fill:#cb545e;fill-rule:nonzero;"/><path d="M3115.63,4476.55c0.287,1.112 -0.534,1.786 -2.331,2.43c-0.602,-1.166 0.13,-2.113 2.331,-2.43Z" style="fill:#cb545e;fill-rule:nonzero;"/><path d="M3094.81,4484.59c0.354,1.112 -0.457,1.86 -2.285,2.613c-0.632,-1.141 0.08,-2.136 2.285,-2.613Z" style="fill:#d75562;fill-rule:nonzero;"/><path d="M4213.27,1968.58c-1.191,1.049 -2.333,0.488 -3.581,-1.549c0.855,-0.427 2.1,0.045 3.581,1.549Z" style="fill:#a54549;fill-rule:nonzero;"/><path d="M4315.83,1850.5c0.923,0.95 0.447,2.086 -1.32,3.493c-1.231,-0.999 -0.828,-2.192 1.32,-3.493Z" style="fill:#934041;fill-rule:nonzero;"/><path d="M4136.39,3129.12c0.756,0.758 0.31,1.872 -1.094,3.504c-1.317,-0.802 -1.032,-2.023 1.094,-3.504Z" style="fill:#ba4c53;fill-rule:nonzero;"/><path d="M889.862,2236.61c-1.36,0.348 -2.037,-0.515 -2.343,-2.535c1.325,-0.517 2.21,0.311 2.343,2.535Z" style="fill:#934041;fill-rule:nonzero;"/><path d="M3019.86,4509.96c0.339,1.107 -0.432,1.795 -2.19,2.428c-0.546,-1.083 0.143,-2.013 2.19,-2.428Z" style="fill:#ba4c53;fill-rule:nonzero;"/><path d="M4193.17,2021.44c1.513,-0.637 2.369,0.179 2.803,2.382c-1.471,0.781 -2.483,0.008 -2.803,-2.382Z" style="fill:#a54549;fill-rule:nonzero;"/><path d="M904.687,2032.07c-0.781,-1.004 -0.317,-1.833 1.184,-2.759c1.297,1.016 0.972,2.026 -1.184,2.759Z" style="fill:#934041;fill-rule:nonzero;"/><path d="M900.647,2036.61c-0.782,-0.977 -0.243,-1.992 1.478,-3.194c1.11,1.024 0.664,2.138 -1.478,3.194Z" style="fill:#934041;fill-rule:nonzero;"/><path d="M896.711,2041.15c-0.818,-1.089 -0.173,-2.197 1.819,-3.458c0.321,0.778 -0.246,1.975 -1.819,3.458Z" style="fill:#934041;fill-rule:nonzero;"/><path d="M919.012,2298.95c-1.107,0.262 -1.72,-0.525 -2.237,-2.251c1.131,-0.535 2.009,0.18 2.237,2.251Z" style="fill:#a54549;fill-rule:nonzero;"/><path d="M884.176,2066.22c-0.982,-0.9 -0.588,-1.966 1.008,-3.323c1.529,0.946 1.251,2.096 -1.008,3.323Z" style="fill:#934041;fill-rule:nonzero;"/><path d="M892.376,2049.28c-0.885,-0.929 -0.467,-1.892 1.019,-3.104c1.488,0.945 1.226,2.051 -1.019,3.104Z" style="fill:#934041;fill-rule:nonzero;"/><path d="M3936.8,3750.73c0.806,0.854 0.41,1.761 -0.929,2.95c-1.455,-0.859 -1.232,-1.919 0.929,-2.95Z" style="fill:#934041;fill-rule:nonzero;"/><path d="M4307.68,3472.05c0.622,0.99 0.042,1.839 -1.531,2.835c-1.085,-1.044 -0.645,-2.085 1.531,-2.835Z" style="fill:#934041;fill-rule:nonzero;"/><path d="M4303.55,3476.38c0.608,0.937 0.083,1.728 -1.35,2.669c-1.116,-0.983 -0.741,-1.972 1.35,-2.669Z" style="fill:#934041;fill-rule:nonzero;"/><path d="M4299.38,3480.68c0.579,0.966 0.05,1.712 -1.362,2.573c-1.103,-1.006 -0.724,-1.976 1.362,-2.573Z" style="fill:#934041;fill-rule:nonzero;"/><path d="M4295.2,3484.83c0.58,0.969 0.046,1.719 -1.376,2.586c-1.1,-1.01 -0.717,-1.985 1.376,-2.586Z" style="fill:#934041;fill-rule:nonzero;"/><path d="M4291.04,3488.97c0.58,0.974 0.038,1.732 -1.398,2.613c-1.102,-1.016 -0.712,-2 1.398,-2.613Z" style="fill:#934041;fill-rule:nonzero;"/><path d="M4286.85,3493.12c0.53,1.03 -0.104,1.814 -1.718,2.671c-0.919,-1.075 -0.407,-2.072 1.718,-2.671Z" style="fill:#934041;fill-rule:nonzero;"/><path d="M4282.63,3496.91c0.613,1.071 -0.059,1.977 -1.861,2.962c-0.931,-1.118 -0.363,-2.187 1.861,-2.962Z" style="fill:#934041;fill-rule:nonzero;"/><path d="M3953.25,3721.12c0.82,0.856 0.352,1.991 -1.252,3.519c-1.183,-0.9 -0.816,-2.111 1.252,-3.519Z" style="fill:#934041;fill-rule:nonzero;"/><path d="M4315.88,3463.28c0.668,1.014 0.009,2.025 -1.86,3.181c-0.917,-1.067 -0.336,-2.176 1.86,-3.181Z" style="fill:#934041;fill-rule:nonzero;"/><path d="M3944.83,3737.73c0.728,0.966 0.095,2.097 -1.72,3.568c-0.304,-0.704 0.211,-1.953 1.72,-3.568Z" style="fill:#934041;fill-rule:nonzero;"/><path d="M3941.13,3742.6c0.738,0.715 0.416,1.52 -0.692,2.621c-1.432,-0.695 -1.293,-1.637 0.692,-2.621Z" style="fill:#934041;fill-rule:nonzero;"/><path d="M4311.76,3467.52c0.709,0.998 0.12,1.973 -1.579,3.14c-1.145,-1.067 -0.681,-2.186 1.579,-3.14Z" style="fill:#934041;fill-rule:nonzero;"/><path d="M3932.64,3759.18c0.756,0.902 0.289,1.801 -1.174,2.922c-1.36,-0.961 -1.044,-2.009 1.174,-2.922Z" style="fill:#934041;fill-rule:nonzero;"/><path d="M3928.37,3767.27c0.75,0.913 0.203,1.979 -1.511,3.314c-1.078,-0.981 -0.618,-2.124 1.511,-3.314Z" style="fill:#934041;fill-rule:nonzero;"/><path d="M3924.48,3772.04c0.724,0.771 0.395,1.484 -0.672,2.423c-0.493,0.338 -1.171,-1.129 -1.171,-1.129c-0,0 1.037,-1.238 1.843,-1.294Z" style="fill:#934041;fill-rule:nonzero;"/><path d="M3920.22,3780.25c0.703,0.884 0.26,1.696 -1.087,2.703c-1.327,-0.919 -1.046,-1.91 1.087,-2.703Z" style="fill:#934041;fill-rule:nonzero;"/><path d="M3915.95,3788.23c0.779,0.876 0.321,1.821 -1.173,3.013c-1.327,-0.942 -1.002,-2.006 1.173,-3.013Z" style="fill:#934041;fill-rule:nonzero;"/><path d="M3911.6,3796.16c0.778,0.894 0.253,2.022 -1.439,3.499c-1.096,-0.946 -0.661,-2.15 1.439,-3.499Z" style="fill:#934041;fill-rule:nonzero;"/><path d="M3907.76,3801.14c0.695,0.892 0.255,1.677 -1.061,2.647c-1.353,-0.918 -1.086,-1.898 1.061,-2.647Z" style="fill:#934041;fill-rule:nonzero;"/><path d="M3903.46,3809.11c0.761,0.904 0.279,1.84 -1.253,2.994c-1.29,-0.975 -0.937,-2.036 1.253,-2.994Z" style="fill:#934041;fill-rule:nonzero;"/><path d="M3899.05,3816.92c0.743,0.933 0.145,2.076 -1.666,3.542c-1.054,-1.003 -0.542,-2.223 1.666,-3.542Z" style="fill:#934041;fill-rule:nonzero;"/><path d="M3895.2,3821.73c0.759,0.867 0.345,1.725 -0.986,2.826c-1.401,-0.88 -1.159,-1.906 0.986,-2.826Z" style="fill:#934041;fill-rule:nonzero;"/><path d="M4312.01,1855.47c0.903,0.948 0.554,1.756 -0.81,2.688c-1.509,-0.897 -1.319,-1.882 0.81,-2.688Z" style="fill:#934041;fill-rule:nonzero;"/><path d="M3824.33,3926.04c0.601,0.86 0.107,1.65 -1.227,2.664c-1.242,-0.93 -0.919,-1.916 1.227,-2.664Z" style="fill:#a54549;fill-rule:nonzero;"/><path d="M1751.38,4098.77c6.296,8.823 20.483,13.493 17.252,22.896c-3.19,9.283 -17.133,5.834 -26.254,7.273c-27.064,4.266 -54.205,0.967 -80.49,-5.067c-26.81,-6.155 -50.927,-39.315 -54.37,-67.998c-1.664,-13.866 7.461,-12.281 15.443,-13.075c52.583,-5.231 97.449,7.53 128.419,55.971Z" style="fill:#ec93a1;fill-rule:nonzero;"/></svg>